<?xml version="1.0" encoding="UTF-8" standalone="no"?><!-- Generator: Gravit.io --><svg xmlns="http://www.w3.org/2000/svg" xmlns:xlink="http://www.w3.org/1999/xlink" style="isolation:isolate" viewBox="0 0 3416 3911" width="3416pt" height="3911pt"><defs><clipPath id="_clipPath_28BicWX6aDjXCh1xNV8U2UJzL9166mCy"><rect width="3416" height="3911"/></clipPath></defs><g clip-path="url(#_clipPath_28BicWX6aDjXCh1xNV8U2UJzL9166mCy)"><g><path d=" M 1707.5 67 L 3344 1011.5 L 3344 2427.5 L 3344 2781.5 L 3344 2869.5 L 3344 2891.5 C 3344.772 2894.396 3345.729 2899.155 3342.5 2901 L 3342.5 2901 L 1707.5 3844 L 72 2899.5 L 72 1483.5 L 72 1129.5 L 72 1041.5 L 72 1019.5 C 71.228 1016.604 70.271 1011.845 73.5 1010 L 73.5 1010 L 1707.5 67 Z " fill="rgb(141,59,118)"/><path d=" M 1707.5 150 L 3272 1052.5 L 3271.5 2859 L 1707.5 3761 L 144 2858.5 L 144.5 1052 L 1707.5 150 Z " fill="rgb(255,255,255)"/></g><g><path d=" M 1677.892 2224 C 1106.209 2224 642.784 1908.719 642.784 1520 C 642.784 1131.281 1106.209 816 1677.892 816 C 2249.575 816 2713 1131.281 2713 1520 C 2712.367 1908.719 2248.942 2224 1677.892 2224 Z  M 1836.165 1091.396 C 1401.863 1091.396 1049.23 1306.647 1049.23 1572.547 C 1049.23 1838.446 1401.23 2053.698 1836.165 2053.698 C 2270.468 2053.698 2591.446 1906.187 2591.446 1572.547 C 2590.813 1238.906 2270.468 1091.396 1836.165 1091.396 Z " fill="rgb(202,205,207)"/><path d=" M 1077.257 3025.57 L 824.959 3025.57 L 824.959 2569.415 L 877.586 2569.415 L 877.586 2977.521 L 1077.257 2977.521 L 1077.257 3025.57 L 1077.257 3025.57 Z  M 1393.017 3025.57 L 1354.94 3025.57 L 1344.724 2976.896 L 1342.248 2976.896 L 1342.248 2976.896 Q 1316.863 3009.033 1291.633 3020.422 L 1291.633 3020.422 L 1291.633 3020.422 Q 1266.403 3031.81 1228.636 3031.81 L 1228.636 3031.81 L 1228.636 3031.81 Q 1178.176 3031.81 1149.541 3005.601 L 1149.541 3005.601 L 1149.541 3005.601 Q 1120.906 2979.393 1120.906 2931.031 L 1120.906 2931.031 L 1120.906 2931.031 Q 1120.906 2827.445 1285.287 2822.453 L 1285.287 2822.453 L 1342.867 2820.581 L 1342.867 2799.364 L 1342.867 2799.364 Q 1342.867 2759.115 1325.686 2739.927 L 1325.686 2739.927 L 1325.686 2739.927 Q 1308.505 2720.738 1270.737 2720.738 L 1270.737 2720.738 L 1270.737 2720.738 Q 1228.326 2720.738 1174.771 2746.947 L 1174.771 2746.947 L 1158.983 2707.322 L 1158.983 2707.322 Q 1184.058 2693.594 1213.932 2685.793 L 1213.932 2685.793 L 1213.932 2685.793 Q 1243.805 2677.993 1273.833 2677.993 L 1273.833 2677.993 L 1273.833 2677.993 Q 1334.508 2677.993 1363.763 2705.138 L 1363.763 2705.138 L 1363.763 2705.138 Q 1393.017 2732.283 1393.017 2792.188 L 1393.017 2792.188 L 1393.017 3025.57 L 1393.017 3025.57 Z  M 1238.852 2989.065 L 1238.852 2989.065 L 1238.852 2989.065 Q 1286.835 2989.065 1314.232 2962.544 L 1314.232 2962.544 L 1314.232 2962.544 Q 1341.628 2936.024 1341.628 2888.286 L 1341.628 2888.286 L 1341.628 2857.398 L 1290.24 2859.582 L 1290.24 2859.582 Q 1228.946 2861.766 1201.858 2878.77 L 1201.858 2878.77 L 1201.858 2878.77 Q 1174.771 2895.775 1174.771 2931.655 L 1174.771 2931.655 L 1174.771 2931.655 Q 1174.771 2959.736 1191.643 2974.4 L 1191.643 2974.4 L 1191.643 2974.4 Q 1208.514 2989.065 1238.852 2989.065 Z  M 1736.638 3025.57 L 1729.827 2979.705 L 1727.041 2979.705 L 1727.041 2979.705 Q 1691.441 3031.81 1620.55 3031.81 L 1620.55 3031.81 L 1620.55 3031.81 Q 1553.992 3031.81 1516.999 2985.945 L 1516.999 2985.945 L 1516.999 2985.945 Q 1480.005 2940.08 1480.005 2855.526 L 1480.005 2855.526 L 1480.005 2855.526 Q 1480.005 2770.971 1517.154 2724.17 L 1517.154 2724.17 L 1517.154 2724.17 Q 1554.302 2677.369 1620.55 2677.369 L 1620.55 2677.369 L 1620.55 2677.369 Q 1689.583 2677.369 1726.422 2727.914 L 1726.422 2727.914 L 1730.446 2727.914 L 1728.279 2703.266 L 1727.041 2679.241 L 1727.041 2540.086 L 1778.429 2540.086 L 1778.429 3025.57 L 1736.638 3025.57 L 1736.638 3025.57 Z  M 1627.05 2988.441 L 1627.05 2988.441 L 1627.05 2988.441 Q 1679.677 2988.441 1703.359 2959.58 L 1703.359 2959.58 L 1703.359 2959.58 Q 1727.041 2930.719 1727.041 2866.446 L 1727.041 2866.446 L 1727.041 2855.526 L 1727.041 2855.526 Q 1727.041 2782.828 1703.049 2751.783 L 1703.049 2751.783 L 1703.049 2751.783 Q 1679.058 2720.738 1626.431 2720.738 L 1626.431 2720.738 L 1626.431 2720.738 Q 1581.234 2720.738 1557.243 2756.151 L 1557.243 2756.151 L 1557.243 2756.151 Q 1533.251 2791.564 1533.251 2856.15 L 1533.251 2856.15 L 1533.251 2856.15 Q 1533.251 2921.671 1557.088 2955.056 L 1557.088 2955.056 L 1557.088 2955.056 Q 1580.925 2988.441 1627.05 2988.441 Z  M 1938.786 2683.609 L 1938.786 3025.57 L 1887.397 3025.57 L 1887.397 2683.609 L 1938.786 2683.609 L 1938.786 2683.609 Z  M 1883.063 2590.943 L 1883.063 2590.943 L 1883.063 2590.943 Q 1883.063 2573.159 1891.731 2564.891 L 1891.731 2564.891 L 1891.731 2564.891 Q 1900.399 2556.622 1913.401 2556.622 L 1913.401 2556.622 L 1913.401 2556.622 Q 1925.784 2556.622 1934.761 2565.047 L 1934.761 2565.047 L 1934.761 2565.047 Q 1943.739 2573.471 1943.739 2590.943 L 1943.739 2590.943 L 1943.739 2590.943 Q 1943.739 2608.416 1934.761 2616.996 L 1934.761 2616.996 L 1934.761 2616.996 Q 1925.784 2625.576 1913.401 2625.576 L 1913.401 2625.576 L 1913.401 2625.576 Q 1900.399 2625.576 1891.731 2616.996 L 1891.731 2616.996 L 1891.731 2616.996 Q 1883.063 2608.416 1883.063 2590.943 Z  M 2191.084 3031.81 L 2191.084 3031.81 L 2191.084 3031.81 Q 2115.859 3031.81 2072.364 2985.633 L 2072.364 2985.633 L 2072.364 2985.633 Q 2028.87 2939.456 2028.87 2857.398 L 2028.87 2857.398 L 2028.87 2857.398 Q 2028.87 2774.716 2069.269 2726.042 L 2069.269 2726.042 L 2069.269 2726.042 Q 2109.667 2677.369 2177.772 2677.369 L 2177.772 2677.369 L 2177.772 2677.369 Q 2241.544 2677.369 2278.692 2719.646 L 2278.692 2719.646 L 2278.692 2719.646 Q 2315.84 2761.923 2315.84 2831.189 L 2315.84 2831.189 L 2315.84 2863.95 L 2082.116 2863.95 L 2082.116 2863.95 Q 2083.664 2924.167 2112.299 2955.368 L 2112.299 2955.368 L 2112.299 2955.368 Q 2140.934 2986.569 2192.941 2986.569 L 2192.941 2986.569 L 2192.941 2986.569 Q 2247.735 2986.569 2301.29 2963.48 L 2301.29 2963.48 L 2301.29 3009.657 L 2301.29 3009.657 Q 2274.048 3021.514 2249.747 3026.662 L 2249.747 3026.662 L 2249.747 3026.662 Q 2225.446 3031.81 2191.084 3031.81 Z  M 2177.153 2720.738 L 2177.153 2720.738 L 2177.153 2720.738 Q 2136.29 2720.738 2111.989 2747.571 L 2111.989 2747.571 L 2111.989 2747.571 Q 2087.688 2774.404 2083.354 2821.829 L 2083.354 2821.829 L 2260.737 2821.829 L 2260.737 2821.829 Q 2260.737 2772.844 2239.067 2746.791 L 2239.067 2746.791 L 2239.067 2746.791 Q 2217.397 2720.738 2177.153 2720.738 Z  M 2622.313 2932.279 L 2622.313 2932.279 L 2622.313 2932.279 Q 2622.313 2980.017 2587.022 3005.913 L 2587.022 3005.913 L 2587.022 3005.913 Q 2551.731 3031.81 2487.96 3031.81 L 2487.96 3031.81 L 2487.96 3031.81 Q 2420.474 3031.81 2382.707 3010.281 L 2382.707 3010.281 L 2382.707 2962.232 L 2382.707 2962.232 Q 2407.163 2974.712 2435.179 2981.889 L 2435.179 2981.889 L 2435.179 2981.889 Q 2463.194 2989.065 2489.198 2989.065 L 2489.198 2989.065 L 2489.198 2989.065 Q 2529.442 2989.065 2551.112 2976.116 L 2551.112 2976.116 L 2551.112 2976.116 Q 2572.782 2963.168 2572.782 2936.648 L 2572.782 2936.648 L 2572.782 2936.648 Q 2572.782 2916.679 2555.601 2902.483 L 2555.601 2902.483 L 2555.601 2902.483 Q 2538.42 2888.286 2488.579 2868.942 L 2488.579 2868.942 L 2488.579 2868.942 Q 2441.215 2851.157 2421.248 2837.897 L 2421.248 2837.897 L 2421.248 2837.897 Q 2401.281 2824.637 2391.529 2807.788 L 2391.529 2807.788 L 2391.529 2807.788 Q 2381.778 2790.94 2381.778 2767.539 L 2381.778 2767.539 L 2381.778 2767.539 Q 2381.778 2725.73 2415.521 2701.55 L 2415.521 2701.55 L 2415.521 2701.55 Q 2449.264 2677.369 2508.082 2677.369 L 2508.082 2677.369 L 2508.082 2677.369 Q 2562.875 2677.369 2615.193 2699.834 L 2615.193 2699.834 L 2596.928 2741.955 L 2596.928 2741.955 Q 2545.849 2720.738 2504.367 2720.738 L 2504.367 2720.738 L 2504.367 2720.738 Q 2467.838 2720.738 2449.264 2732.283 L 2449.264 2732.283 L 2449.264 2732.283 Q 2430.69 2743.827 2430.69 2764.107 L 2430.69 2764.107 L 2430.69 2764.107 Q 2430.69 2777.836 2437.655 2787.508 L 2437.655 2787.508 L 2437.655 2787.508 Q 2444.62 2797.18 2460.099 2805.916 L 2460.099 2805.916 L 2460.099 2805.916 Q 2475.577 2814.653 2519.536 2831.189 L 2519.536 2831.189 L 2519.536 2831.189 Q 2579.902 2853.341 2601.107 2875.806 L 2601.107 2875.806 L 2601.107 2875.806 Q 2622.313 2898.271 2622.313 2932.279 Z " fill="rgb(202,205,207)"/><path d=" M 2323.016 2009.098 C 2306.256 1990.998 2283.463 1977.59 2270.055 1970.886 C 2231.842 1951.445 2165.474 1930.663 2165.474 1930.663 C 2165.474 1930.663 2491.954 1905.858 2491.954 1576.026 C 2491.954 1246.193 2150.725 1240.16 2150.725 1240.16 L 1399.887 1240.16 L 1399.887 2491.78 L 1773.295 2491.78 L 1773.295 2001.724 C 1773.295 2001.724 1859.105 2001.724 1873.854 2001.724 C 1894.636 2001.724 1903.351 2007.758 1924.133 2024.517 C 1948.938 2044.629 1989.161 2115.691 1989.161 2115.691 L 2186.256 2491.78 L 2607.932 2491.78 L 2347.15 2044.629 C 2347.15 2044.629 2339.105 2026.529 2323.016 2009.098 Z  M 2002.569 1724.182 L 1776.647 1724.182 L 1776.647 1511.668 L 2002.569 1511.668 C 2002.569 1511.668 2107.15 1505.635 2107.15 1616.249 C 2107.15 1723.512 2002.569 1724.182 2002.569 1724.182 Z " fill="rgb(255,255,255)"/><clipPath id="_clipPath_GWdGEKGPZ9F9Ck3N5qFYECbU5S9VmTLc"><path d=" M 2323.016 2009.098 C 2306.256 1990.998 2283.463 1977.59 2270.055 1970.886 C 2231.842 1951.445 2165.474 1930.663 2165.474 1930.663 C 2165.474 1930.663 2491.954 1905.858 2491.954 1576.026 C 2491.954 1246.193 2150.725 1240.16 2150.725 1240.16 L 1399.887 1240.16 L 1399.887 2491.78 L 1773.295 2491.78 L 1773.295 2001.724 C 1773.295 2001.724 1859.105 2001.724 1873.854 2001.724 C 1894.636 2001.724 1903.351 2007.758 1924.133 2024.517 C 1948.938 2044.629 1989.161 2115.691 1989.161 2115.691 L 2186.256 2491.78 L 2607.932 2491.78 L 2347.15 2044.629 C 2347.15 2044.629 2339.105 2026.529 2323.016 2009.098 Z  M 2002.569 1724.182 L 1776.647 1724.182 L 1776.647 1511.668 L 2002.569 1511.668 C 2002.569 1511.668 2107.15 1505.635 2107.15 1616.249 C 2107.15 1723.512 2002.569 1724.182 2002.569 1724.182 Z " fill="rgb(255,255,255)"/></clipPath><g clip-path="url(#_clipPath_GWdGEKGPZ9F9Ck3N5qFYECbU5S9VmTLc)"><g><rect x="1400.887" y="1261.78" width="1180.519" height="205" transform="matrix(1,0,0,1,0,0)" fill="rgb(229,30,37)"/><rect x="1400.887" y="1466.78" width="1180.519" height="205" transform="matrix(1,0,0,1,0,0)" fill="rgb(246,141,31)"/><rect x="1400.887" y="1671.78" width="1180.519" height="205" transform="matrix(1,0,0,1,0,0)" fill="rgb(249,238,20)"/><rect x="1400.887" y="1876.78" width="1180.519" height="205" transform="matrix(1,0,0,1,0,0)" fill="rgb(13,128,64)"/><rect x="1352.996" y="2081.78" width="1180.519" height="205" transform="matrix(1,0,0,1,0,0)" fill="rgb(61,95,172)"/><rect x="1266.255" y="2286.78" width="1354" height="205" transform="matrix(1,0,0,1,0,0)" fill="rgb(116,42,133)"/></g><g><rect x="693.301" y="1245.832" width="1499.773" height="150" transform="matrix(0.606,-0.795,0.795,0.606,-482.054,1668.441)" fill="rgb(255,255,255)"/><rect x="762.325" y="1402.755" width="1499.773" height="150" transform="matrix(0.606,-0.795,0.795,0.606,-579.686,1785.177)" fill="rgb(246,170,184)"/><rect x="725.927" y="1606.942" width="1638.606" height="150" transform="matrix(0.606,-0.795,0.795,0.606,-729.101,1891.894)" fill="rgb(96,205,246)"/><rect x="883.381" y="1638.336" width="1653" height="150" transform="matrix(0.606,-0.795,0.795,0.606,-689.2,2035.239)" fill="rgb(103,64,24)"/><rect x="1015.515" y="1716.113" width="1647.365" height="150" transform="matrix(0.606,-0.795,0.795,0.606,-700.118,2168.752)" fill="rgb(5,7,8)"/></g></g></g></g></svg>