<?xml version="1.0" encoding="utf-8"?>
<!-- Generator: Adobe Illustrator 19.2.1, SVG Export Plug-In . SVG Version: 6.00 Build 0)  -->
<svg version="1.1" id="Layer_1" xmlns="http://www.w3.org/2000/svg" xmlns:xlink="http://www.w3.org/1999/xlink" x="0px" y="0px"
	 viewBox="0 0 1500 500" style="enable-background:new 0 0 1500 500;" xml:space="preserve">
<style type="text/css">
	.st0{fill:url(#SVGID_1_);}
	.st1{fill:url(#SVGID_2_);}
	.st2{fill:none;}
	.st3{fill:#A7A8AB;}
	.st4{font-family:'OpenSans';}
	.st5{font-size:300px;}
</style>
<linearGradient id="SVGID_1_" gradientUnits="userSpaceOnUse" x1="110.8843" y1="650.5911" x2="111.5697" y2="649.9056" gradientTransform="matrix(721.094 0 0 -482.937 -79929.5313 314246)">
	<stop  offset="0" style="stop-color:#C9CCCE"/>
	<stop  offset="1" style="stop-color:#82828A"/>
</linearGradient>
<path class="st0" d="M275.6,383.8c-135.4,0-245.2-74.7-245.2-166.8c0-92.1,109.8-166.8,245.2-166.8c135.4,0,245.2,74.7,245.2,166.8
	C520.8,309.1,411,383.8,275.6,383.8z M313.1,115.4c-102.9,0-186.4,51-186.4,114s83.5,114,186.4,114c102.9,0,178.9-34.9,178.9-114
	C492.1,150.3,416.1,115.4,313.1,115.4z"/>
<linearGradient id="SVGID_2_" gradientUnits="userSpaceOnUse" x1="221.8509" y1="300.2784" x2="492.1778" y2="300.2784">
	<stop  offset="0" style="stop-color:#883A8A"/>
	<stop  offset="0.1652" style="stop-color:#843886"/>
	<stop  offset="0.3365" style="stop-color:#783379"/>
	<stop  offset="0.5105" style="stop-color:#632A65"/>
	<stop  offset="0.6864" style="stop-color:#471E48"/>
	<stop  offset="0.8621" style="stop-color:#220F23"/>
	<stop  offset="1" style="stop-color:#000000"/>
</linearGradient>
<path class="st1" d="M428.3,332.3c-3.7-4-8.9-7.1-11.9-8.6c-8.6-4.4-23.4-9-23.4-9s73-5.5,73-79.3c0-73.8-76.4-75.2-76.4-75.2H221.9
	v280.1l83.5,0l0-109.6c0,0,19.2,0,22.4,0c4.6,0,6.6,1.4,11.2,5.2c5.6,4.6,14.6,20.3,14.6,20.3l44.1,84.2l94.4,0l-58.4-100
	C433.8,340.3,432,336.3,428.3,332.3z M356.7,268.6l-50.6,0l0-47.6l50.6,0c0,0,23.4-1.3,23.4,23.3
	C380.1,268.5,356.7,268.6,356.7,268.6z"/>
<rect x="466.6" y="210.7" class="st2" width="1012.3" height="264.6"/>
<text transform="matrix(1 0 0 1 466.6124 438.6644)" class="st3 st4 st5">-Ladies</text>
</svg>
