<?xml version="1.0" encoding="utf-8"?>
<!-- Generator: Adobe Illustrator 19.2.1, SVG Export Plug-In . SVG Version: 6.00 Build 0)  -->
<svg version="1.1" id="Layer_1" xmlns="http://www.w3.org/2000/svg" xmlns:xlink="http://www.w3.org/1999/xlink" x="0px" y="0px"
	 viewBox="0 0 400 400" style="enable-background:new 0 0 400 400;" xml:space="preserve">
<style type="text/css">
	.st0{fill:url(#SVGID_1_);}
	.st1{fill:url(#SVGID_2_);}
	.st2{fill:none;}
	.st3{fill:#A7A9AC;}
	.st4{font-family:'OpenSans';}
	.st5{font-size:100px;}
</style>
<linearGradient id="SVGID_1_" gradientUnits="userSpaceOnUse" x1="-438.3435" y1="600.5569" x2="-437.8866" y2="600.1" gradientTransform="matrix(721.094 0 0 -482.937 316122.1563 290049.1563)">
	<stop  offset="0" style="stop-color:#CACDCF"/>
	<stop  offset="1" style="stop-color:#83838B"/>
</linearGradient>
<path class="st0" d="M200.1,239.5c-90.3,0-163.5-49.8-163.5-111.2c0-61.4,73.2-111.2,163.5-111.2c90.3,0,163.5,49.8,163.5,111.2
	C363.5,189.7,290.3,239.5,200.1,239.5z M225.1,60.6c-68.6,0-124.3,34-124.3,76s55.6,76,124.3,76c68.6,0,119.3-23.3,119.3-76
	C344.3,83.9,293.7,60.6,225.1,60.6z"/>
<linearGradient id="SVGID_2_" gradientUnits="userSpaceOnUse" x1="164.2139" y1="183.8332" x2="344.4319" y2="183.8332">
	<stop  offset="0" style="stop-color:#88398A"/>
	<stop  offset="0.1652" style="stop-color:#843786"/>
	<stop  offset="0.3365" style="stop-color:#783279"/>
	<stop  offset="0.5105" style="stop-color:#632A65"/>
	<stop  offset="0.6864" style="stop-color:#471E48"/>
	<stop  offset="0.8621" style="stop-color:#220E23"/>
	<stop  offset="1" style="stop-color:#000000"/>
</linearGradient>
<path class="st1" d="M301.9,205.2c-2.5-2.7-5.9-4.7-7.9-5.7c-5.7-2.9-15.6-6-15.6-6s48.7-3.7,48.7-52.9s-50.9-50.1-50.9-50.1H164.2
	v186.7l55.7,0l0-73.1c0,0,12.8,0,15,0c3.1,0,4.4,0.9,7.5,3.4c3.7,3,9.7,13.6,9.7,13.6l29.4,56.1l62.9,0l-38.9-66.7
	C305.5,210.5,304.3,207.8,301.9,205.2z M254.1,162.7l-33.7,0l0-31.7l33.7,0c0,0,15.6-0.9,15.6,15.6
	C269.7,162.6,254.1,162.7,254.1,162.7z"/>
<rect x="56.3" y="289.5" class="st2" width="312.2" height="92.3"/>
<text transform="matrix(1 0 0 1 56.2793 365.4492)" class="st3 st4 st5">Ladies</text>
</svg>
