<?xml version="1.0" encoding="utf-8"?>
<!-- Generator: Adobe Illustrator 19.2.1, SVG Export Plug-In . SVG Version: 6.00 Build 0)  -->
<svg version="1.1" id="Layer_1" xmlns="http://www.w3.org/2000/svg" xmlns:xlink="http://www.w3.org/1999/xlink" x="0px" y="0px"
	 viewBox="0 0 1500 500" style="enable-background:new 0 0 1500 500;" xml:space="preserve">
<style type="text/css">
	.st0{fill:url(#SVGID_1_);}
	.st1{fill:url(#SVGID_2_);}
	.st2{fill:none;}
	.st3{fill:#A8AAAD;}
	.st4{font-family:'OpenSans';}
	.st5{font-size:300px;}
</style>
<linearGradient id="SVGID_1_" gradientUnits="userSpaceOnUse" x1="110.8911" y1="650.5803" x2="111.5765" y2="649.8948" gradientTransform="matrix(721.094 0 0 -482.937 -79929.5313 314246)">
	<stop  offset="0" style="stop-color:#CACDCF"/>
	<stop  offset="1" style="stop-color:#84838B"/>
</linearGradient>
<path class="st0" d="M280.5,389c-135.4,0-245.2-74.7-245.2-166.8c0-92.1,109.8-166.8,245.2-166.8c135.4,0,245.2,74.7,245.2,166.8
	C525.7,314.3,415.9,389,280.5,389z M318,120.6c-102.9,0-186.4,51-186.4,114s83.5,114,186.4,114c102.9,0,178.9-34.9,178.9-114
	C496.9,155.6,421,120.6,318,120.6z"/>
<linearGradient id="SVGID_2_" gradientUnits="userSpaceOnUse" x1="226.7398" y1="305.5006" x2="497.0667" y2="305.5006">
	<stop  offset="0" style="stop-color:#893A8B"/>
	<stop  offset="0.1646" style="stop-color:#853887"/>
	<stop  offset="0.3352" style="stop-color:#79337A"/>
	<stop  offset="0.5086" style="stop-color:#642A66"/>
	<stop  offset="0.6839" style="stop-color:#481E49"/>
	<stop  offset="0.8589" style="stop-color:#230F24"/>
	<stop  offset="1" style="stop-color:#000000"/>
</linearGradient>
<path class="st1" d="M433.2,337.6c-3.7-4-8.9-7.1-11.9-8.6c-8.6-4.4-23.4-9-23.4-9s73-5.5,73-79.3c0-73.8-76.4-75.2-76.4-75.2H226.7
	v280.1l83.5,0l0-109.6c0,0,19.2,0,22.4,0c4.6,0,6.6,1.4,11.2,5.2c5.6,4.6,14.6,20.3,14.6,20.3l44.1,84.2l94.4,0l-58.4-100
	C438.7,345.5,436.9,341.5,433.2,337.6z M361.6,273.8l-50.6,0l0-47.6l50.6,0c0,0,23.4-1.3,23.4,23.3
	C385,273.7,361.6,273.8,361.6,273.8z"/>
<rect x="471.5" y="215.9" class="st2" width="1012.3" height="264.6"/>
<text transform="matrix(1 0 0 1 471.5013 443.8866)" class="st3 st4 st5">-Ladies</text>
</svg>
