<?xml version="1.0" encoding="utf-8"?>
<!-- Generator: Adobe Illustrator 19.2.1, SVG Export Plug-In . SVG Version: 6.00 Build 0)  -->
<svg version="1.1" id="Layer_1" xmlns="http://www.w3.org/2000/svg" xmlns:xlink="http://www.w3.org/1999/xlink" x="0px" y="0px"
	 viewBox="0 0 400 400" style="enable-background:new 0 0 400 400;" xml:space="preserve">
<style type="text/css">
	.st0{fill:url(#SVGID_1_);}
	.st1{fill:url(#SVGID_2_);}
	.st2{fill:none;}
	.st3{fill:#A8AAAD;}
	.st4{font-family:'OpenSans';}
	.st5{font-size:100px;}
</style>
<linearGradient id="SVGID_1_" gradientUnits="userSpaceOnUse" x1="-438.3465" y1="600.5408" x2="-437.8895" y2="600.0839" gradientTransform="matrix(721.094 0 0 -482.937 316122.1563 290049.1563)">
	<stop  offset="0" style="stop-color:#CACDCF"/>
	<stop  offset="1" style="stop-color:#84838B"/>
</linearGradient>
<path class="st0" d="M197.9,247.3c-90.3,0-163.5-49.8-163.5-111.2c0-61.4,73.2-111.2,163.5-111.2c90.3,0,163.5,49.8,163.5,111.2
	C361.4,197.5,288.2,247.3,197.9,247.3z M222.9,68.4c-68.6,0-124.3,34-124.3,76s55.6,76,124.3,76c68.6,0,119.3-23.3,119.3-76
	C342.2,91.6,291.6,68.4,222.9,68.4z"/>
<linearGradient id="SVGID_2_" gradientUnits="userSpaceOnUse" x1="162.0878" y1="191.599" x2="342.3057" y2="191.599">
	<stop  offset="0" style="stop-color:#893A8B"/>
	<stop  offset="0.1646" style="stop-color:#853887"/>
	<stop  offset="0.3352" style="stop-color:#79337A"/>
	<stop  offset="0.5086" style="stop-color:#642A66"/>
	<stop  offset="0.6839" style="stop-color:#481E49"/>
	<stop  offset="0.8589" style="stop-color:#230F24"/>
	<stop  offset="1" style="stop-color:#000000"/>
</linearGradient>
<path class="st1" d="M299.7,213c-2.5-2.7-5.9-4.7-7.9-5.7c-5.7-2.9-15.6-6-15.6-6s48.7-3.7,48.7-52.9s-50.9-50.1-50.9-50.1H162.1
	v186.7l55.7,0l0-73.1c0,0,12.8,0,15,0c3.1,0,4.4,0.9,7.5,3.4c3.7,3,9.7,13.6,9.7,13.6l29.4,56.1l62.9,0l-38.9-66.7
	C303.4,218.3,302.2,215.6,299.7,213z M252,170.4l-33.7,0l0-31.7l33.7,0c0,0,15.6-0.9,15.6,15.6C267.6,170.4,252,170.4,252,170.4z"/>
<rect x="54.2" y="297.2" class="st2" width="312.2" height="92.3"/>
<text transform="matrix(1 0 0 1 54.1532 373.215)" class="st3 st4 st5">Ladies</text>
</svg>
